<svg width="818" height="318" viewBox="0 0 818 318" fill="none" xmlns="http://www.w3.org/2000/svg">
<path d="M0.353333 159.468V160.333C0.353333 252.125 71.8307 317.072 167.427 317.072C223.119 317.072 268.285 296.723 300.735 270.312V235.929C285.171 207.488 264.901 170.543 244.66 133.923H159.535V195.405H220.049V232.208C207.332 240.435 191.545 244.765 170.936 244.765C122.26 244.765 87.6186 209.692 87.6186 160.767V159.901C87.6186 113.571 121.821 76.768 166.112 76.768C187.76 76.768 205.137 82.1187 221.308 91.8134C199.975 53.4974 180.885 19.688 170.223 1.92405C168.713 1.89472 167.209 1.86139 165.673 1.86139C70.516 1.86139 0.353333 71.1387 0.353333 159.468Z" fill="url(#paint0_linear_1_82)"/>
<path d="M291.854 1.50519H193.696L358.227 292.239L407.772 204.365L291.854 1.50519Z" fill="white"/>
<path d="M526.213 87.1087L513.121 63.2194L372.249 314.674H469.472L562.096 152.582L526.213 87.1087Z" fill="white"/>
<path d="M512.199 211.492C517.407 226.204 524.739 239.908 533.834 252.237C560.978 289.041 603.782 313.588 652.414 316.03C655.07 316.164 657.743 316.232 660.431 316.232C747.258 316.232 817.646 245.845 817.646 159.018C817.646 73.617 749.553 4.12364 664.698 1.8623L619.003 89.2876C631.13 82.0663 645.293 77.9076 660.431 77.9076C705.227 77.9076 741.542 114.221 741.542 159.018C741.542 203.814 705.227 240.129 660.431 240.129C631.365 240.129 605.883 224.829 591.562 201.854L584.742 192.77L573.173 171.737L554.147 138.078" fill="white"/>
<path d="M548.429 0.194668L526.564 39.224L541.04 65.64L575.671 128.828L649.175 0.194668H548.429Z" fill="white"/>
<defs>
<linearGradient id="paint0_linear_1_82" x1="0.353946" y1="159.467" x2="300.735" y2="159.467" gradientUnits="userSpaceOnUse">
<stop stop-color="#DADADA"/>
<stop offset="0.025868" stop-color="#DADADA"/>
<stop offset="0.699866" stop-color="white"/>
<stop offset="0.710959" stop-color="white"/>
<stop offset="1" stop-color="white"/>
</linearGradient>
</defs>
</svg>
